<svg width="304" height="211" viewBox="0 0 304 211" fill="none" xmlns="http://www.w3.org/2000/svg">
<path d="M65.1925 210.032C56.7445 210.032 48.5845 209.072 40.7125 207.152C33.0325 205.232 26.1205 203.12 19.9765 200.816C13.8325 198.512 9.0325 196.4 5.5765 194.48C2.1205 192.56 0.3925 191.6 0.3925 191.6C0.3925 191.6 0.8725 190.256 1.8325 187.568C2.7925 184.88 3.8485 181.808 5.0005 178.352C6.3445 174.896 7.4965 171.824 8.4565 169.136C9.6085 166.448 10.1845 165.104 10.1845 165.104C10.1845 165.104 11.9125 165.872 15.3685 167.408C18.8245 168.944 23.4325 170.768 29.1925 172.88C35.1445 174.8 41.7685 176.528 49.0645 178.064C56.3605 179.408 63.6565 180.08 70.9525 180.08C75.1765 180.08 78.5365 179.696 81.0325 178.928C83.7205 178.16 85.6405 177.392 86.7925 176.624C89.6725 174.704 91.9765 171.824 93.7045 167.984C95.4325 163.952 96.2965 158.672 96.2965 152.144C96.2965 146 94.5685 140.912 91.1125 136.88C87.8485 132.656 83.4325 129.008 77.8645 125.936C72.2965 122.864 66.2485 119.888 59.7205 117.008C52.8085 113.744 46.0885 110.576 39.5605 107.504C33.0325 104.24 27.1765 100.496 21.9925 96.272C17.0005 91.856 13.0645 86.384 10.1845 79.856C7.3045 73.328 5.8645 65.264 5.8645 55.664C5.8645 45.488 8.2645 36.272 13.0645 28.016C17.8645 19.76 25.0645 13.232 34.6645 8.43199C44.2645 3.43999 56.1685 0.943996 70.3765 0.943996C79.2085 0.943996 87.6565 1.61599 95.7205 2.95999C103.785 4.11198 110.409 5.35999 115.593 6.70399C120.777 8.04799 123.369 8.71998 123.369 8.71998L117.897 36.368C117.897 36.368 115.113 35.888 109.545 34.928C104.169 33.968 97.3525 33.008 89.0965 32.048C81.0325 30.896 73.0645 30.32 65.1925 30.32C60.7765 30.32 57.3205 30.608 54.8245 31.184C52.5205 31.76 50.4085 32.624 48.4885 33.776C46.3765 35.12 44.4565 37.424 42.7285 40.688C41.0005 43.76 40.1365 48.272 40.1365 54.224C40.1365 60.368 41.8645 65.456 45.3205 69.488C48.7765 73.52 53.2885 76.976 58.8565 79.856C64.6165 82.736 70.7605 85.52 77.2885 88.208C83.2405 90.896 89.3845 93.776 95.7205 96.848C102.057 99.92 107.817 103.664 113.001 108.08C118.377 112.496 122.697 118.064 125.961 124.784C129.225 131.504 130.857 139.76 130.857 149.552C130.857 161.648 128.073 172.208 122.505 181.232C117.129 190.256 109.449 197.36 99.4645 202.544C89.6725 207.536 78.2485 210.032 65.1925 210.032ZM172.641 206L173.793 112.4L172.641 4.976C172.641 4.976 174.849 4.78399 179.265 4.39999C183.681 4.01599 189.441 3.53599 196.545 2.95999C203.841 2.384 211.617 1.904 219.873 1.51999C228.321 1.13599 236.481 0.943996 244.353 0.943996C263.169 0.943996 277.761 6.704 288.129 18.224C298.497 29.744 303.681 47.024 303.681 70.064C303.681 84.464 301.761 96.368 297.921 105.776C294.273 114.992 289.281 122.288 282.945 127.664C276.801 132.848 269.889 136.592 262.209 138.896C254.529 141.008 246.561 142.064 238.305 142.064C231.585 142.064 225.057 141.872 218.721 141.488C212.385 141.104 208.257 140.816 206.337 140.624V206H172.641ZM239.745 114.416C250.497 114.416 257.601 112.784 261.057 109.52C263.745 106.832 265.665 102.032 266.817 95.12C267.969 88.208 268.545 78.992 268.545 67.472C268.545 58.064 268.065 50.96 267.105 46.16C266.145 41.36 264.993 38 263.649 36.08C262.497 33.968 261.345 32.432 260.193 31.472C258.657 30.32 255.873 29.36 251.841 28.592C248.001 27.632 243.297 27.152 237.729 27.152C231.585 27.152 225.633 27.44 219.873 28.016C214.305 28.592 209.793 29.168 206.337 29.744V111.536C207.873 111.92 211.809 112.496 218.145 113.264C224.673 114.032 231.873 114.416 239.745 114.416Z" fill="black"/>
</svg>
