<svg width="65" height="46" viewBox="0 0 65 46" fill="none" xmlns="http://www.w3.org/2000/svg">
<path d="M61.5955 0.0220118L61.627 6.42193L50.8105 6.34713L50.5146 37.261L50.8346 37.2594L59.367 28.3853L64.1909 33.2257L50.9379 45.259L43.4475 44.7838L43.2586 6.38428L33.7234 6.55918L33.6919 0.159255L61.5955 0.0220118ZM29.8789 0.178008L29.9063 5.74594C29.9063 5.74594 28.8879 6.88163 26.851 9.15301C24.7715 11.4246 21.8443 14.8524 18.0695 19.4363C15.4399 22.6493 13.2993 25.4972 11.6475 27.98C9.95298 30.463 9.11109 32.7925 9.12179 34.9685C9.12788 36.2058 9.51681 37.2066 10.2886 37.9708C11.0179 38.7779 12.2999 39.1769 14.1345 39.1679C15.4145 39.1616 16.8428 38.9413 18.4193 38.5068C19.9532 38.0726 21.529 37.4889 23.1468 36.7556C24.722 36.0651 26.1902 35.2899 27.5514 34.4299L30.5867 39.983C29.8219 40.6268 28.6737 41.4004 27.1421 42.304C25.5678 43.2077 23.7584 44.006 21.7138 44.6987C19.6694 45.4341 17.5379 45.8073 15.3192 45.8182C12.7166 45.831 10.4103 45.373 8.40039 44.4442C6.3478 43.5156 4.71998 42.2009 3.51693 40.5002C2.3141 38.8421 1.70701 36.861 1.69568 34.557C1.68666 32.7224 2.08286 30.8644 2.88428 28.9831C3.64325 27.1447 4.63698 25.3265 5.86549 23.5284C7.05153 21.7732 8.28056 20.0818 9.55257 18.4542C10.4856 17.2976 11.5034 16.0339 12.606 14.6631C13.7088 13.335 14.7692 12.0711 15.7874 10.8714C16.7628 9.67197 17.5686 8.68666 18.2048 7.91552C18.8411 7.14438 19.1592 6.75881 19.1592 6.75881L19.1573 6.37482L0.599391 6.8501L0.567284 0.322176L29.8789 0.178008Z" fill="black"/>
</svg>
