<svg width="65" height="47" viewBox="0 0 65 47" fill="none" xmlns="http://www.w3.org/2000/svg">
<path d="M61.5955 1.02201L61.627 7.42193L50.8105 7.34713L50.5146 38.261L50.8346 38.2594L59.367 29.3853L64.1909 34.2257L50.9379 46.259L43.4475 45.7838L43.2586 7.38428L33.7234 7.55918L33.6919 1.15925L61.5955 1.02201ZM14.975 0.419303C17.6203 0.406292 20.0111 0.693203 22.1473 1.28004C24.2409 1.86708 25.9933 2.47714 27.4044 3.1102C28.7731 3.78615 29.6713 4.22973 30.099 4.44097L27.6301 9.95718C27.1172 9.78903 26.1342 9.45253 24.6811 8.94767C23.2279 8.44281 21.5616 7.98167 19.6822 7.56424C17.8028 7.14681 15.9671 6.9425 14.1751 6.95132C11.9138 6.96244 10.3591 7.50342 9.51106 8.57428C8.66298 9.64513 8.24451 11.3112 8.25563 13.5725C8.27095 16.6871 8.92154 18.8386 10.2074 20.027C11.4933 21.2153 13.4588 21.803 16.1041 21.79L23.2081 21.7551L23.238 27.835C19.6979 28.1084 16.9473 28.3993 14.9862 28.7076C12.9823 29.0161 11.5771 29.5777 10.7704 30.3923C9.92126 31.2499 9.50131 32.6173 9.51055 34.4946C9.52167 36.7559 9.91312 38.2687 10.6849 39.0329C11.1567 39.5426 11.9691 39.8799 13.1219 40.0449C14.2323 40.2528 15.6194 40.3526 17.2834 40.3444C18.0514 40.3407 18.8406 40.3154 19.6511 40.2688C20.4615 40.2221 21.4424 40.132 22.5938 39.9983C23.7451 39.8646 25.2376 39.6866 27.0712 39.4643L27.9328 45.4761C26.9952 45.6941 25.8655 45.8916 24.5437 46.0688C23.2221 46.2886 21.8789 46.4659 20.5142 46.6006C19.1495 46.7353 17.9339 46.8053 16.8672 46.8106C14.0512 46.8244 11.5322 46.4741 9.30995 45.7597C7.04508 45.0455 5.24712 43.8383 3.91607 42.1382C2.58524 40.4807 1.91258 38.18 1.8981 35.236C1.88677 32.9321 2.26185 31.1169 3.02333 29.7904C3.78482 28.464 4.65465 27.4784 5.63282 26.8336C6.56833 26.189 7.35545 25.7371 7.99418 25.4779L7.99261 25.1579C6.88182 24.8647 5.74854 24.337 4.59278 23.5746C3.43702 22.8123 2.47147 21.6864 1.69613 20.1969C0.878129 18.7075 0.462832 16.6829 0.450241 14.1229C0.43828 11.6909 0.896486 9.42732 1.82486 7.33206C2.75323 5.23681 4.28103 3.56527 6.40825 2.31746C8.53547 1.06965 11.3911 0.43693 14.975 0.419303Z" fill="black"/>
</svg>
