<svg width="56" height="56" viewBox="0 0 56 56" fill="none" xmlns="http://www.w3.org/2000/svg">
<g opacity="0.7">
<path d="M28.0001 4.66666C15.1201 4.66666 4.66675 15.12 4.66675 28C4.66675 40.88 15.1201 51.3333 28.0001 51.3333C40.8801 51.3333 51.3334 40.88 51.3334 28C51.3334 15.12 40.8801 4.66666 28.0001 4.66666ZM9.33342 28C9.33342 17.6867 17.6867 9.33332 28.0001 9.33332C32.3167 9.33332 36.2834 10.8033 39.4334 13.2767L13.2767 39.4333C10.8034 36.2833 9.33342 32.3167 9.33342 28ZM28.0001 46.6667C23.6834 46.6667 19.7167 45.1967 16.5667 42.7233L42.7234 16.5667C45.1968 19.7167 46.6668 23.6833 46.6668 28C46.6668 38.3133 38.3134 46.6667 28.0001 46.6667Z" fill="black"/>
</g>
</svg>
