<svg width="154" height="29" viewBox="0 0 154 29" fill="none" xmlns="http://www.w3.org/2000/svg">
<path d="M144.982 0.555572C146.854 0.546365 148.452 0.874511 149.775 1.54001C151.075 2.20563 152.076 3.36472 152.78 5.01727C153.461 6.69395 153.808 9.02027 153.823 11.9962L153.892 26.1801L149.681 26.2008L149.616 13.0249C149.606 11.081 149.538 9.52127 149.413 8.34588C149.263 7.1946 149.019 6.31979 148.68 5.72145C148.341 5.14711 147.871 4.76541 147.27 4.57637C146.669 4.38732 145.913 4.29504 145.001 4.29953C144.065 4.32813 143.297 4.43991 142.698 4.63485C142.075 4.82992 141.609 5.21622 141.3 5.79375C140.967 6.37139 140.731 7.23656 140.593 8.38926C140.454 9.54195 140.39 11.1023 140.4 13.0703L140.465 26.2461L136.289 26.2666L136.221 12.4068C136.205 9.31085 136.541 6.90916 137.229 5.20176C137.893 3.49448 138.883 2.28959 140.199 1.58711C141.492 0.908743 143.086 0.564897 144.982 0.555572ZM129.479 1.13583L129.583 22.1956L126.883 22.2089L126.369 20.1234L126.189 20.1242C125.734 20.3905 125.124 20.7175 124.358 21.1053C123.568 21.5172 122.681 21.8815 121.699 22.1984C120.693 22.5393 119.661 22.7124 118.605 22.7176C117.213 22.7244 116.156 22.3936 115.433 21.7252C114.685 21.0568 114.177 20.1473 113.907 18.9966C113.637 17.8459 113.499 16.5506 113.492 15.1106L113.424 1.2148L117.6 1.19426L117.663 14.0461C117.669 15.2701 117.697 16.194 117.748 16.8177C117.8 17.4655 117.946 17.9568 118.188 18.2916C118.357 18.5547 118.598 18.7336 118.91 18.828C119.199 18.9226 119.535 18.969 119.919 18.9671C120.615 18.9636 121.334 18.8521 122.077 18.6324C122.82 18.4128 123.491 18.1575 124.09 17.8665C124.688 17.5996 125.119 17.3695 125.382 17.1762L125.303 1.15637L129.479 1.13583ZM107.619 1.24335L107.532 12.7999L107.753 28.495L103.613 28.5154L103.535 12.6036L95.879 22.3613L90.731 22.3867L99.108 12.8053L99.1071 12.6254L89.8715 1.33064L95.0914 1.30496L103.535 12.4956L103.479 1.26371L107.619 1.24335ZM87.2924 1.34332L87.396 22.4031L84.696 22.4163L84.1818 20.3309L84.0018 20.3317C83.5471 20.598 82.9367 20.925 82.1706 21.3128C81.3806 21.7246 80.4944 22.089 79.5119 22.4058C78.5056 22.7468 77.4744 22.9199 76.4184 22.9251C75.0265 22.9319 73.9688 22.6011 73.2455 21.9327C72.4982 21.2643 71.9897 20.3548 71.7201 19.2041C71.4504 18.0534 71.3121 16.7581 71.305 15.3181L71.2366 1.42229L75.4126 1.40175L75.4758 14.2536C75.4818 15.4776 75.5103 16.4015 75.5614 17.0252C75.6126 17.673 75.759 18.1643 76.0007 18.4991C76.17 18.7622 76.4108 18.9411 76.7233 19.0355C77.0118 19.1301 77.348 19.1764 77.732 19.1746C78.428 19.1711 79.1475 19.0596 79.8904 18.8399C80.6333 18.6203 81.3041 18.365 81.9027 18.074C82.5013 17.8071 82.9322 17.577 83.1953 17.3837L83.1165 1.36386L87.2924 1.34332ZM57.726 1.02074C59.886 1.01011 61.5922 1.44573 62.8445 2.32758C64.0729 3.20955 64.9551 4.46522 65.4911 6.09461C66.0272 7.74799 66.3009 9.70267 66.3119 11.9586C66.323 14.2146 66.0686 16.1599 65.5486 17.7945C65.0288 19.453 64.1591 20.7293 62.9394 21.6233C61.6959 22.5415 59.9942 23.0059 57.8342 23.0165C55.6983 23.027 54.016 22.5792 52.7876 21.6733C51.5352 20.7914 50.653 19.5238 50.1408 17.8703C49.6048 16.2409 49.3312 14.2982 49.3202 12.0422C49.3091 9.78624 49.5634 7.82897 50.0833 6.17039C50.5792 4.53593 51.449 3.27164 52.6927 2.37751C53.9123 1.4835 55.5901 1.03124 57.726 1.02074ZM57.7425 4.3687C56.6625 4.37401 55.8235 4.57014 55.2254 4.95709C54.6033 5.34415 54.1749 6.09027 53.9404 7.19543C53.6818 8.30072 53.5577 9.90935 53.5681 12.0213C53.5786 14.1573 53.7186 15.7766 53.988 16.8793C54.2334 17.9821 54.6691 18.724 55.295 19.1049C55.9208 19.4858 56.7618 19.6737 57.8178 19.6685C58.9218 19.6631 59.7848 19.4668 60.4069 19.0798C61.029 18.6927 61.4693 17.9465 61.7279 16.8412C61.9865 15.736 62.1105 14.1153 62.1 11.9794C62.0896 9.86738 61.9497 8.26005 61.6803 7.15736C61.4108 6.05468 60.9632 5.31287 60.3373 4.93194C59.7114 4.55102 58.8465 4.36327 57.7425 4.3687ZM42.1478 1.56536L46.4274 22.6046L42.2154 22.6253L39.3913 4.71096L39.2113 4.71185L36.1535 19.8111L30.7176 19.8378L27.5114 4.76939L27.3314 4.77028L24.7196 22.7113L20.5077 22.7321L24.5441 1.65195L30.124 1.6245L33.3301 16.6929L33.5461 16.6919L36.5679 1.59281L42.1478 1.56536ZM16.4183 1.69191L16.5219 22.7517L13.8219 22.7649L13.3076 20.6794L13.1276 20.6803C12.6729 20.9466 12.0625 21.2736 11.2964 21.6613C10.5065 22.0732 9.62024 22.4376 8.63779 22.7544C7.63145 23.0954 6.60029 23.2685 5.5443 23.2737C4.15232 23.2805 3.09468 22.9497 2.37138 22.2813C1.62408 21.6129 1.11561 20.7034 0.845943 19.5527C0.576281 18.402 0.437909 17.1067 0.430826 15.6667L0.36248 1.77088L4.53843 1.75034L4.60164 14.6022C4.60766 15.8262 4.6362 16.75 4.68727 17.3738C4.73846 18.0216 4.88488 18.5128 5.12653 18.8477C5.29582 19.1108 5.53671 19.2896 5.84917 19.3841C6.13764 19.4787 6.47387 19.525 6.85787 19.5232C7.55386 19.5197 8.27332 19.4082 9.01625 19.1885C9.75918 18.9689 10.4299 18.7136 11.0285 18.4226C11.6272 18.1557 12.0581 17.9256 12.3211 17.7323L12.2423 1.71245L16.4183 1.69191Z" fill="black"/>
</svg>
